<svg version="1.2" xmlns="http://www.w3.org/2000/svg" viewBox="0 0 178 140" width="178" height="140">
	<title>amigo-clinic-svg</title>
	<defs>
		<clipPath clipPathUnits="userSpaceOnUse" id="cp1">
			<path d="m0 0h874.36v140h-874.36z"/>
		</clipPath>
	</defs>
	<style>
		.s0 { fill: #008cff } 
		.s1 { fill: #26282a } 
	</style>
	<g id="Clip-Path" clip-path="url(#cp1)">
		<g id="Layer">
			<path id="Layer" fill-rule="evenodd" class="s0" d="m167.8 76.6c4.4 6.6 6.6 14.4 6.5 22.4 0.1 10.7-4.1 21.1-11.7 28.7-7.6 7.7-17.9 12-28.7 12.1-5.2 0-10.4-1.1-15.3-3.1-4.9-2-9.3-4.9-13-8.7-0.3-0.2-18.4-22-18.4-22 0 0-17.8 21.6-18.3 22-3.8 3.8-8.2 6.7-13.1 8.7-4.9 2.1-10.1 3.1-15.4 3.1-8-0.1-15.8-2.6-22.4-7-6.6-4.5-11.8-10.8-14.8-18.2-3.1-7.4-4-15.5-2.5-23.3 1.5-7.9 5.2-15.1 10.8-20.8l47-56.7c5.3-6.4 12.6-10.9 20.8-12.7q3.9-0.8 7.9-0.8 4 0 8 0.9 3.9 0.8 7.5 2.5c5.1 2.3 9.6 5.8 13.2 10.1 0 0 51.6 62.5 51.9 62.9zm-5 34.6c1.7-3.9 2.5-8.1 2.5-12.4 0-4.2-0.8-8.4-2.5-12.3q-1.2-2.9-2.9-5.4l-0.3-0.5-3.4-4.1-14.7-17.7-32.5-39.2c-2.7-3.3-6.1-6-10-7.8-3.7-1.6-7.7-2.5-11.8-2.5-4.2 0-8.3 0.9-12.1 2.7-3.8 1.8-7.1 4.4-9.8 7.6l-50.1 60.4q-0.1 0.2-0.2 0.4l-0.7 0.8q-1.7 2.5-2.9 5.4c-1.6 3.9-2.5 8.1-2.5 12.3 0 4.3 0.9 8.5 2.5 12.4q1.2 2.8 2.9 5.4c3.4 5.1 8.2 9.1 13.8 11.5 3.9 1.6 8.1 2.5 12.3 2.5 4.2 0 8.3-0.9 12.2-2.5 3.8-1.6 7.1-3.9 10-6.8l0.2-0.2 24.4-29.3 18.5 22.3 6 7.2q2.1 2.1 4.6 3.9 2.6 1.7 5.4 2.9c4.8 2.1 10 2.9 15.3 2.3 5.2-0.5 10.2-2.3 14.5-5.2 3.3-2.3 6.2-5.3 8.5-8.6q1.7-2.6 2.9-5.4zm-60.5-85.8c0 0 49.4 59.5 49.5 59.8 3 3.9 4.6 8.8 4.6 13.7 0 3-0.5 5.9-1.7 8.7-1.1 2.7-2.7 5.2-4.8 7.3-2.1 2.1-4.6 3.8-7.3 4.9-2.8 1.2-5.7 1.8-8.7 1.8-3.6 0-7.1-0.9-10.3-2.5-3.2-1.7-5.9-4.1-7.9-7l-28.5-34.2-28.8 34.6c-3.9 4.5-9.4 7.4-15.3 7.9-6 0.5-11.9-1.4-16.4-5.2-4.6-3.8-7.5-9.3-8-15.3-0.2-2.9 0.1-5.9 1-8.7 0.9-2.8 2.3-5.5 4.2-7.7l48.3-58c1.9-2.2 4.2-4 6.7-5.2 2.6-1.3 5.5-1.9 8.3-1.9 2.9 0 5.7 0.6 8.3 1.9 2.6 1.2 4.9 3 6.7 5.2zm41.2 83.2c2.5-2.6 3.9-6 3.9-9.5 0.1-3.6-1.2-7-3.7-9.6l-48.3-58.2c-1-1.3-2.3-2.3-3.7-2.9-1.4-0.7-3-1-4.5-1-1.5 0-3 0.3-4.4 0.9-1.5 0.7-2.8 1.7-3.8 2.9l-49.4 59.4v0.2c-1.7 2.3-2.6 5.1-2.6 8.1 0 3.6 1.4 7 3.9 9.6 1.3 1.2 2.8 2.2 4.4 2.9 1.6 0.7 3.4 1.1 5.2 1.1 1.7 0 3.5-0.4 5.1-1.1 1.7-0.7 3.2-1.7 4.4-2.9 0.1-0.2 37.2-44.8 37.2-44.8 0 0 37.1 44.6 37.2 44.8 1.3 1.2 2.8 2.2 4.4 2.9 1.6 0.7 3.4 1.1 5.2 1.1 1.7 0 3.5-0.4 5.1-1.1 1.7-0.7 3.1-1.7 4.4-2.9zm-6-12.5c0.7 0.9 1.1 2.1 1 3.3-0.2 1.2-0.7 2.3-1.6 3-0.8 0.7-1.9 1.1-2.9 1.2q-1-0.1-1.9-0.5-0.9-0.4-1.5-1.2l-43.4-52-43.4 52q-0.5 0.7-1.3 1.1-0.8 0.4-1.7 0.5-0.9 0.1-1.8-0.2-0.8-0.3-1.5-0.9c-0.9-0.8-1.4-1.8-1.5-3-0.1-1.2 0.2-2.4 1-3.3l46.8-56.2q0.6-0.7 1.5-1.2 0.9-0.4 1.9-0.4 1 0 1.9 0.4 0.9 0.5 1.5 1.2z"/>
			<path id="Layer" fill-rule="evenodd" class="s1" d="m209.7 88.6c0-13.5 9.4-22.8 27.3-22.8h16.2c1.4 0 2.7-0.6 3.7-1.6 1-1 1.5-2.3 1.5-3.7v-3.2c0-11.1-7-16.2-18-16.2-10.9 0-15.2 4.3-16.9 9.6q-0.1 0.2-0.3 0.4-0.2 0.1-0.4 0.1h-9.3q-0.2 0-0.3-0.1-0.1 0-0.2-0.1-0.1-0.1-0.2-0.3 0-0.1 0-0.2c1.6-12.3 12-19 28.2-19 15.6 0 28.3 7 28.3 25.6v53.6q0 0.2 0 0.3-0.1 0.1-0.2 0.2 0 0.1-0.2 0.1-0.1 0.1-0.2 0.1h-9.2q-0.3 0-0.5-0.2-0.1-0.2-0.1-0.5v-7.6q0-0.3-0.2-0.6-0.2-0.2-0.4-0.3-0.3-0.1-0.6-0.1-0.3 0.1-0.5 0.3c-2.7 3.2-6.1 5.7-9.9 7.5-3.7 1.7-7.8 2.7-12 2.8-15.2 0-25.6-9.6-25.6-24.1zm48.7-4.2v-6.5c0-0.8-0.3-1.6-0.9-2.1-0.6-0.6-1.3-0.9-2.1-0.9h-18.2c-11.6 0-16.3 5.8-16.3 13.5 0 10 7.9 14.7 17 14.7 11.6 0 20.5-8 20.5-18.7z"/>
			<path id="Layer" class="s1" d="m291.4 61.9c0-8 3.2-15.7 8.8-21.4 5.6-5.7 13.3-9 21.2-9.1h2.8c11 0 18.2 5.5 21.2 12.8q0.2 0.3 0.4 0.5 0.3 0.2 0.6 0.3 0.4 0 0.7-0.2 0.3-0.1 0.4-0.4c2.5-3.9 6-7.1 10-9.4 4-2.2 8.5-3.5 13.2-3.6 15.8 0 25.8 8.7 25.8 24.7v54.6q0 0.2 0 0.3-0.1 0.1-0.2 0.2-0.1 0.1-0.2 0.1-0.1 0.1-0.3 0.1h-9.4q-0.3 0-0.5-0.2-0.2-0.2-0.2-0.5v-51.7c0-10.7-6.1-17.9-17.5-17.9-10.8 0-18.7 8.5-18.7 19.6v50q0 0.3-0.2 0.5-0.2 0.2-0.4 0.2h-9.6q-0.3 0-0.5-0.2-0.1-0.2-0.2-0.5v-51.2c0-10.8-6.6-18.4-17.8-18.4-11.2 0-18.4 8.4-18.4 19.7v50q-0.1 0.1-0.1 0.2 0 0.2-0.1 0.3-0.1 0.1-0.3 0.1-0.1 0.1-0.2 0.1h-9.5q-0.1 0-0.2-0.1-0.2 0-0.3-0.1 0-0.1-0.1-0.2 0-0.2 0-0.3z"/>
			<path id="Layer" class="s1" d="m425.2 0c1.1 0 2.2 0.2 3.2 0.6 1.1 0.4 2 1 2.8 1.8 0.8 0.8 1.4 1.7 1.8 2.8 0.4 1 0.6 2.1 0.5 3.2-0.1 2.2-1 4.2-2.5 5.6-1.6 1.5-3.6 2.3-5.8 2.3-2.1 0-4.1-0.8-5.7-2.3-1.5-1.4-2.5-3.4-2.6-5.6 0-1.1 0.2-2.2 0.6-3.2 0.4-1 1-2 1.8-2.7 0.7-0.8 1.6-1.5 2.7-1.9 1-0.4 2.1-0.6 3.2-0.6zm-4.7 32.7h9.5q0.1 0 0.2 0 0.2 0.1 0.2 0.2 0.1 0.1 0.2 0.2 0 0.1 0 0.3v77.4q0 0.2 0 0.3-0.1 0.1-0.2 0.2 0 0.1-0.2 0.2-0.1 0-0.2 0h-9.5q-0.3 0-0.5-0.2-0.1-0.2-0.2-0.5v-77.4q0.1-0.3 0.2-0.5 0.2-0.2 0.5-0.2z"/>
			<path id="Layer" fill-rule="evenodd" class="s1" d="m507.5 109.4v-10q0-0.3-0.2-0.5-0.2-0.3-0.4-0.4-0.3-0.1-0.6 0-0.3 0.1-0.5 0.3c-3.2 3.7-10.8 10.9-21.5 10.9-17.4 0-31.1-12.3-31.1-32.5v-13c0-20.5 13.9-32.8 31-32.8h1.5c7.4-0.1 14.5 2.3 20.4 6.8 3.9 3.4 7 7.6 9.1 12.3 2.1 4.7 3.2 9.8 3.1 15v43.6c0.1 20.9-13.2 30.9-33.3 30.9-18.8 0-28.4-9.6-29.9-20.3q0-0.1 0-0.3 0.1-0.1 0.2-0.2 0.1-0.1 0.2-0.2 0.1-0.1 0.3 0h10q0.2 0 0.4 0.1 0.1 0.2 0.2 0.4c1.3 5.6 7.9 10.9 19 10.9 14.7 0 22.1-7.9 22.1-20.9zm-43.4-42.7v7.9c0 15.3 9.4 25.5 22.5 25.5 13.7 0 21-11.4 21-23.2v-12.3c0-12.3-7.8-23.5-21.2-23.5-13.3 0-22.2 10-22.2 25.6z"/>
			<path id="Layer" fill-rule="evenodd" class="s1" d="m605.1 65.9v12.5c0 22-14.3 34.4-33 34.4-18.7 0-33.1-12.2-33.1-34.4v-12.5c0-21.4 14.2-34.5 33.1-34.5 18.9 0 33 12.5 33 34.5zm-55.3 1.2v10c0 16.1 8.5 26 22.4 26 13.8 0 22.1-9.8 22.1-26v-10c0-15.8-8.8-26-22.1-26-13.4 0-22.4 10.2-22.4 26z"/>
			<path id="Layer" class="s1" d="m706.4 65h-5.8c-0.1-1.2-0.6-2.3-1.2-3.2q-0.9-1.4-2.2-2.4-1.3-1-2.9-1.5-1.7-0.5-3.5-0.5c-2 0-4 0.6-5.8 1.7-1.8 1.1-3.2 2.8-4 4.8-1.1 2.4-1.6 5-1.5 7.7-0.1 2.7 0.4 5.3 1.5 7.8 0.8 1.9 2.2 3.6 4 4.7 1.8 1.2 3.8 1.8 6 1.7q1.7 0 3.4-0.5 1.5-0.5 2.9-1.4c1.8-1.4 3-3.4 3.5-5.6h5.7c-0.3 1.8-0.9 3.6-1.8 5.2-0.9 1.5-2 2.9-3.5 4-1.4 1.1-3 1.9-4.7 2.5-1.8 0.6-3.8 1-5.7 0.9-3.1 0.1-6.1-0.7-8.7-2.3-2.6-1.6-4.7-3.9-6.1-6.7-1.5-3.2-2.3-6.8-2.2-10.4-0.1-3.6 0.7-7.1 2.2-10.3 1.4-2.8 3.5-5.1 6.1-6.7 2.6-1.6 5.6-2.4 8.7-2.3 1.9-0.1 3.8 0.2 5.6 0.8 1.7 0.6 3.3 1.4 4.7 2.5 1.4 1.1 2.6 2.5 3.4 4 1 1.7 1.6 3.6 1.9 5.5z"/>
			<path id="Layer" class="s1" d="m713.2 90.4v-37.7h5.7v32.8h17.1v5z"/>
			<path id="Layer" class="s1" d="m748.2 52.7v37.7h-5.7v-37.7z"/>
			<path id="Layer" class="s1" d="m786.9 52.7v37.7h-5.2l-19.2-27.6h-0.4v27.6h-5.7v-37.7h5.3l19.2 27.7h0.3v-27.7z"/>
			<path id="Layer" class="s1" d="m800.9 52.7v37.7h-5.7v-37.7z"/>
			<path id="Layer" class="s1" d="m840.6 65h-5.6c-0.2-1.2-0.7-2.3-1.3-3.2q-0.9-1.4-2.2-2.4-1.3-1-2.9-1.5-1.8-0.5-3.6-0.4c-2.1 0-4.1 0.5-5.9 1.6-1.7 1.2-3.2 2.9-4 4.9-1.1 2.4-1.6 5-1.5 7.7-0.1 2.6 0.4 5.3 1.5 7.8 0.8 1.9 2.2 3.5 4 4.6 1.7 1.1 3.8 1.7 5.9 1.7q1.7 0 3.4-0.5 1.6-0.5 2.9-1.5c1.9-1.3 3.2-3.3 3.7-5.5h5.7c-0.3 1.8-0.9 3.5-1.8 5.1-0.9 1.6-2 3-3.5 4.1-1.4 1.1-3 1.9-4.7 2.5-1.8 0.6-3.8 1-5.7 0.9-3.1 0.1-6.1-0.7-8.7-2.3-2.7-1.6-4.8-3.9-6.1-6.7-1.5-3.2-2.3-6.8-2.2-10.4-0.1-3.6 0.7-7.1 2.2-10.3 1.4-2.8 3.5-5.1 6.1-6.7 2.6-1.6 5.6-2.4 8.7-2.3 1.9-0.1 3.8 0.2 5.6 0.8 1.7 0.6 3.3 1.4 4.7 2.5 1.4 1.1 2.6 2.5 3.4 4 1 1.7 1.6 3.6 1.9 5.5z"/>
			<path id="Layer" fill-rule="evenodd" class="s1" d="m640.4 71.5c0-22 17.9-39.9 39.9-39.9h154.2c22 0 39.9 17.9 39.9 39.9 0 22-17.9 39.9-39.9 39.9h-154.2c-22 0-39.9-17.9-39.9-39.9zm39.9-34.9c-19.2 0-34.9 15.6-34.9 34.9 0 19.3 15.7 34.9 34.9 34.9h154.2c19.2 0 34.9-15.6 34.9-34.9 0-19.3-15.7-34.9-34.9-34.9z"/>
		</g>
	</g>
</svg>